# xmcd CD database file
#
# Track frame offsets:
#	150
#	20932
#	41982
#	63412
#	81422
#	108447
#	116932
#	148972
#	173830
#	191882
#	216015
#
# Disc length: 3144 seconds
#
# Revision: 2
# Processed by: cddbd v1.5.2PL0 Copyright (c) Steve Scherf et al.
# Submitted via: CDex 1.70beta2
#
DISCID=b30c460b
DTITLE=Johannes Mössinger and Wolfgang Lackerschmid - Joana's Dance
DYEAR=2001
DGENRE=Jazz
TTITLE0=Again And Again
TTITLE1=Memories
TTITLE2=Shoe It Yourself
TTITLE3=Ugly Beauty
TTITLE4=Aleppo
TTITLE5=Desert View
TTITLE6=Joana's Dance, Epilog
TTITLE7=Stundenwalzer
TTITLE8=Canadian Domino
TTITLE9=Nimm Zwei
TTITLE10=Volta Trais
EXTD=YEAR: 2001
EXTT0=
EXTT1=
EXTT2=
EXTT3=
EXTT4=
EXTT5=
EXTT6=
EXTT7=
EXTT8=
EXTT9=
EXTT10=
PLAYORDER=
